# ProBuilder 6.0.4
# https://unity3d.com/unity/features/worldbuilding/probuilder
# 31/03/2025 13:41:06

mtllib ./BackR.mtl
o BackR

g Cube
v 2.491409 1.452895 -6.689451
v 2.519414 1.461562 -6.689451
v 2.519414 1.461562 -6.704399
v 2.491409 1.452895 -6.697845
v 2.543668 1.453527 -6.689451
v 2.543668 1.453527 -6.697845
v 2.491409 1.447385 -6.697845
v 2.519414 1.438229 -6.704399
v 2.519414 1.438229 -6.689451
v 2.491409 1.447385 -6.689451
v 2.543668 1.442044 -6.697845
v 2.543668 1.442044 -6.689451
v 2.543668 1.450765 -6.697845
v 2.543668 1.450765 -6.689451
v 2.491409 1.45108 -6.689451
v 2.491409 1.45108 -6.697845
v 2.519414 1.452963 -6.689451
v 2.519414 1.452963 -6.704399
v 2.543668 1.447413 -6.697845
v 2.543668 1.447413 -6.689451
v 2.491409 1.449104 -6.697845
v 2.491409 1.449104 -6.689451
v 2.519414 1.447413 -6.689451
v 2.519414 1.447413 -6.704399

vt 0.0304697 -0.0005383492
vt 0.002551797 -0.0005383492
vt 0.002551797 -0.01548672
vt 0.0304697 -0.008933067
vt -0.02178047 -0.0005383492
vt -0.02178047 -0.008933067
vt -0.02908536 -0.008933067
vt -0.0004384432 -0.01548672
vt -0.0004384432 -0.0005383492
vt -0.02908536 -0.0005383492
vt 0.0234333 -0.008933067
vt 0.0234333 -0.0005383492
vt 0.008933067 -0.0142349
vt 0.008933067 -0.0114727
vt 0.0005383492 -0.0114727
vt 0.0005383492 -0.0142349
vt -0.0005383492 -0.01392019
vt -0.0005383492 -0.01210511
vt -0.008933067 -0.01210511
vt -0.008933067 -0.01392019
vt -0.002585888 -0.01203668
vt -0.002585888 -0.003438354
vt -0.03059077 -0.01210511
vt -0.03059077 -0.01392019
vt 0.0216682 -0.0142349
vt 0.0216682 -0.0114727
vt 0.002848965 -0.003438354
vt -0.0215131 -0.0114727
vt -0.0215131 -0.0142349
vt 0.002848965 -0.01203668
vt 0.03073831 -0.01210511
vt 0.03073831 -0.01392019
vt 0.0005383492 -0.02295649
vt 0.008933067 -0.02295649
vt 0.008933067 -0.01758695
vt 0.0005383492 -0.01758695
vt -0.008933067 -0.01589644
vt -0.0005383492 -0.01589644
vt -0.008933067 -0.01761532
vt -0.0005383492 -0.01761532
vt -0.03059077 -0.01761532
vt -0.002585888 -0.02677071
vt -0.002585888 -0.01758695
vt -0.03059077 -0.01589644
vt 0.0216682 -0.02295649
vt 0.0216682 -0.01758695
vt 0.002848965 -0.02677071
vt 0.002848965 -0.01758695
vt -0.0215131 -0.01758695
vt -0.0215131 -0.02295649
vt 0.03073831 -0.01761532
vt 0.03073831 -0.01589644

vn -0.2956394 0.9552996 0
vn 0.3144538 0.9492728 0
vn -0.3107373 -0.9504958 0
vn 0.1553517 -0.9878592 0
vn 1 0 0
vn -1 0 0
vn 0 0 1
vn 0.2608531 0 -0.9653785
vn -0.2278619 0 -0.9736935

usemtl GlassRed
f 4/4/1 1/1/1 2/2/1 3/3/1
f 3/3/2 2/2/2 5/5/2 6/6/2
f 9/9/3 10/10/3 7/7/3 8/8/3
f 12/12/4 9/9/4 8/8/4 11/11/4
f 14/16/5 13/13/5 6/14/5 5/15/5
f 1/18/6 4/19/6 16/20/6 15/17/6
f 17/21/7 2/22/7 1/23/7 15/24/7
f 14/25/7 5/26/7 2/22/7 17/21/7
f 3/27/8 6/28/8 13/29/8 18/30/8
f 4/31/9 3/27/9 18/30/9 16/32/9
f 11/34/5 19/35/5 20/36/5 12/33/5
f 19/35/5 13/13/5 14/16/5 20/36/5
f 15/17/6 16/20/6 21/37/6 22/38/6
f 22/38/6 21/37/6 7/39/6 10/40/6
f 10/41/7 9/42/7 23/43/7 22/44/7
f 22/44/7 23/43/7 17/21/7 15/24/7
f 12/45/7 20/46/7 23/43/7 9/42/7
f 20/46/7 14/25/7 17/21/7 23/43/7
f 24/48/8 19/49/8 11/50/8 8/47/8
f 18/30/8 13/29/8 19/49/8 24/48/8
f 21/52/9 24/48/9 8/47/9 7/51/9
f 16/32/9 18/30/9 24/48/9 21/52/9

