# ProBuilder 6.0.4
# https://unity3d.com/unity/features/worldbuilding/probuilder
# 02/03/2025 15:41:38

mtllib ./Cube.mtl
o Cube

g Cube
v -0.4676103 0.899749 0.08661246
v -0.4676103 0.899749 -1.14677
v -0.4676103 1.576 -1.14677
v -0.4676103 1.427891 -0.04064369
v -0.1077332 1.713505 -1.14677
v -0.1077332 1.470412 -0.04064369
v 1.325487 0.899749 0.08661246
v 1.325487 1.427891 -0.04064369
v 1.325487 1.576 -1.14677
v 1.325487 0.899749 -1.14677
v 0.9805516 1.470412 -0.04064369
v 0.9805516 1.713505 -1.14677
v -0.4676103 0.899749 -3.668842
v -0.4676103 0.899749 -4.322395
v -0.4676103 1.527936 -4.197988
v -0.4676103 1.576 -3.668842
v -0.1962189 1.699566 -4.197988
v -0.1962189 1.758509 -3.668842
v 1.325487 1.576 -3.668842
v 1.325487 1.527936 -4.197988
v 1.325487 0.899749 -4.322395
v 1.325487 0.899749 -3.668842
v 1.077461 1.758509 -3.668842
v 1.077461 1.699566 -4.197988
v 0.9630312 0.899749 0.08661246
v 0.9630312 1.346654 0.06351089
v 0.9630312 1.470412 -0.04064369
v 0.9630312 1.576 -4.32755
v 0.9630312 0.899749 -4.322395
v 0.9630312 1.699566 -4.197988
v 0.9630312 1.713505 -1.14677
v 0.9630312 0.899749 -1.14677
v 0.9630312 1.758509 -3.668842
v 0.9630312 0.899749 -3.668842
v -0.09040776 0.899749 0.08661246
v -0.09040776 1.346654 0.06351089
v -0.09040776 1.470412 -0.04064369
v -0.09040776 1.576 -4.32755
v -0.09040776 0.899749 -4.322395
v -0.09040776 1.699566 -4.197988
v -0.09040776 1.713505 -1.14677
v -0.09040776 0.899749 -1.14677
v -0.09040776 1.758509 -3.668842
v -0.09040776 0.899749 -3.668842
v -0.4676103 0.899749 -3.061131
v -0.4676103 1.576 -3.061131
v -0.1077332 2.093627 -3.061131
v 1.325487 1.576 -3.061131
v 1.325487 0.899749 -3.061131
v 0.9805516 2.093627 -3.061131
v 0.9630312 2.093627 -3.061131
v 0.9630312 0.899749 -3.061131
v -0.09040776 2.093627 -3.061131
v -0.09040776 0.899749 -3.061131
v -0.4676103 0.899749 -1.818604
v -0.4676103 1.576 -1.818604
v -0.1077332 2.09985 -1.818604
v 1.325487 1.576 -1.818604
v 1.325487 0.899749 -1.818604
v 0.9805516 2.09985 -1.818604
v 0.9630312 2.09985 -1.818604
v 0.9630312 0.899749 -1.818604
v -0.09040776 2.09985 -1.818604
v -0.09040776 0.899749 -1.818604

vt 2.214302 -0.9953343
vt 0.9809411 -0.9922939
vt 0.9809411 -0.3783545
vt 2.087048 -0.5155429
vt 0.983057 -0.1026333
vt 2.089164 -0.3260539
vt -2.167219 -1.048928
vt -2.040154 -0.5695488
vt -0.9356855 -0.4098179
vt -0.9356855 -1.01978
vt -2.059033 -0.3824806
vt -0.9545643 -0.1370763
vt -1.541087 -0.9860767
vt -2.194628 -0.9844656
vt -2.070224 -0.4144679
vt -1.541087 -0.3721372
vt -2.068628 -0.1448661
vt -1.539492 -0.09265833
vt 1.582606 -0.3502155
vt 2.110959 -0.381063
vt 2.235179 -0.9447326
vt 1.582606 -0.9601775
vt 1.569031 -0.07866289
vt 2.097384 -0.1193235
vt 0.8964078 -1.496699
vt 0.5339515 -1.496694
vt 0.5339523 -1.07689
vt 0.8964124 -0.9611707
vt 0.5339561 -0.9220901
vt 0.5514765 -0.9220903
vt -0.8846788 -1.291829
vt -0.885349 -0.6548418
vt -0.5222 -0.6464454
vt -0.5222277 -1.291254
vt -0.6373264 -0.4904142
vt -0.522898 -0.4902329
vt -0.5340312 0.9825975
vt -0.5515516 0.9825975
vt -0.5515516 2.094304
vt -0.5340312 2.094304
vt 0.5340312 2.219612
vt 0.8964875 2.219612
vt 0.8964875 0.9862298
vt 0.5340312 0.9862298
vt -0.5340312 -2.067381
vt -0.6484612 -2.067381
vt -0.6484612 -1.539823
vt -0.5340312 -1.539823
vt 0.5340312 -1.535842
vt 0.8964875 -1.535842
vt 0.8964875 -2.189395
vt 0.5340312 -2.189395
vt -0.5194874 -1.496679
vt -0.5194866 -1.076875
vt -0.89669 -1.496674
vt -0.8966854 -0.9611453
vt -0.5194829 -0.9220751
vt -0.5368083 -0.9220749
vt 0.5312236 -0.6447757
vt 0.5311958 -1.289585
vt 0.9077226 -0.6519998
vt 0.9083928 -1.288987
vt 0.5305256 -0.4885632
vt 0.6363353 -0.4883955
vt 0.5367332 0.9825975
vt 0.5194077 0.9825975
vt 0.5194077 2.094304
vt 0.5367332 2.094304
vt -0.8966103 2.219612
vt -0.5194077 2.219612
vt -0.5194077 0.9862298
vt -0.8966103 0.9862298
vt 0.6252189 -2.067381
vt 0.5194077 -2.067381
vt 0.5194077 -1.539823
vt 0.6252189 -1.539823
vt -0.8966103 -1.535842
vt -0.5194077 -1.535842
vt -0.5194077 -2.189395
vt -0.8966103 -2.189395
vt -0.933387 -0.9875748
vt -0.933387 -0.3736353
vt -0.9312712 0.2471827
vt 0.9758065 -0.3645771
vt 0.9758065 -0.9745392
vt 0.9569276 0.2510256
vt -0.5515516 -0.9404348
vt -0.5340312 -0.9404348
vt 0.8964875 -0.9281316
vt 0.5340312 -0.9281316
vt 0.5194077 -0.9404348
vt 0.5367332 -0.9404348
vt -0.8966103 -0.9281316
vt -0.5194077 -0.9281316
vt 0.3091187 -0.9906377
vt 0.3091187 -0.3766983
vt 0.3112347 0.2497688
vt -0.2648585 -0.3939409
vt -0.2648585 -1.003903
vt -0.2837373 0.2272743
vt -0.5515516 0.3015746
vt -0.5340312 0.3015746
vt 0.5340312 0.3143958
vt 0.8964875 0.3143958
vt 0.5194077 0.3015746
vt 0.5367332 0.3015746
vt -0.5194077 0.3143958
vt -0.8966103 0.3143958

vn -1 0 0
vn -0.2344006 0.9485821 0.1686721
vn -0.3541623 0.9269117 0.1241122
vn -0.1146388 0.9702526 0.2132321
vn 1 0 0
vn 0.243502 0.9457489 0.1682686
vn 0.119535 0.9696888 0.2131082
vn 0.3674691 0.921809 0.123429
vn -0.5442995 0.8344914 -0.08429368
vn -0.5329243 0.8426937 -0.07654414
vn -0.5556746 0.8262892 -0.09204321
vn 0.5903077 0.8022165 -0.08936167
vn 0.5788776 0.811125 -0.08192377
vn 0.5674476 0.8200336 -0.07448587
vn 0.1106196 0.1400327 0.9733765
vn 0 0.05162344 0.9986666
vn 0.2212392 0.228442 0.9480863
vn 0.03766209 0.3210399 0.8814642
vn 0.07532418 0.6420799 0.7629284
vn 0 0 1
vn 0.1761385 0.0870959 -0.9590183
vn 0.352277 0.1818146 -0.9180656
vn 0 -0.007622817 -0.999971
vn 0.16208 0.3422892 -0.8264478
vn 0 0 -1
vn 0.3241599 0.6845784 -0.6528956
vn 0 0.9766917 0.2146472
vn 0 -1 0
vn 0 0.9938529 -0.1107087
vn -0.1279154 0.1420761 0.9688048
vn 0 0.2342467 0.9721772
vn -0.2558309 0.04990549 0.9654325
vn 0 0.6439092 0.765102
vn -0.03756756 0.63991 0.7665992
vn -0.07513513 0.6359108 0.7680965
vn -0.3240217 -0.007211562 -0.9460221
vn -0.1620109 0.09352823 -0.9634853
vn 0 0.194268 -0.9809485
vn 0 0.7236541 -0.6901628
vn -0.167554 0.6267741 -0.7346052
vn -0.335108 0.529894 -0.7790475
vn -0.6819457 0.6950362 -0.09580833
vn -0.5580435 0.8298117 0
vn -0.8058479 0.5602608 -0.1916167
vn 0.8199679 0.5464094 -0.1705564
vn 0.7063234 0.6759242 -0.08527818
vn 0.5926788 0.8054389 0
vn 0 0.8756816 -0.4828891
vn -0.5693336 0.6945788 0.2366133
vn -0.8242399 0.5662407 0
vn -0.3144272 0.8229169 0.4732265
vn -0.8226495 0.5685385 -0.00141784
vn -0.8210624 0.5708385 0
vn -0.8242366 0.5662385 -0.002835681
vn 0.58091 0.684644 0.2355848
vn 0.326621 0.81934 0.4711696
vn 0.8351989 0.5499479 0
vn 0.8351958 0.5499459 -0.002754089
vn 0.8336782 0.5522401 -0.001377044
vn 0.8321608 0.5545344 0
vn 0 0.9999875 -0.005007865
vn 0 0.8668839 0.4985102

usemtl ProBuilderDefault
f 4/4/1 3/3/1 2/2/1 1/1/1
f 6/6/4 5/5/2 3/3/3 4/4/2
f 10/10/5 9/9/5 8/8/5 7/7/5
f 9/9/8 12/12/6 11/11/7 8/8/6
f 16/16/1 15/15/1 14/14/1 13/13/1
f 18/18/11 17/17/9 15/15/10 16/16/9
f 21/21/5 20/20/5 19/19/5 22/22/5
f 20/20/14 24/24/13 23/23/12 19/19/13
f 8/28/17 26/27/15 25/26/16 7/25/15
f 11/30/20 27/29/18 26/27/19 8/28/18
f 29/34/23 28/33/21 20/32/22 21/31/21
f 28/33/26 30/36/24 24/35/25 20/32/24
f 27/40/27 11/39/27 12/38/27 31/37/27
f 32/44/28 10/43/28 7/42/28 25/41/28
f 33/48/29 23/47/29 24/46/29 30/45/29
f 29/52/28 21/51/28 22/50/28 34/49/28
f 26/27/16 36/54/16 35/53/16 25/26/16
f 36/54/32 4/56/30 1/55/31 35/53/30
f 27/29/33 37/57/33 36/54/33 26/27/33
f 37/57/33 6/58/34 4/56/35 36/54/34
f 39/60/23 38/59/23 28/33/23 29/34/23
f 14/62/38 15/61/37 38/59/36 39/60/37
f 38/59/39 40/63/39 30/36/39 28/33/39
f 15/61/41 17/64/40 40/63/39 38/59/40
f 6/68/27 37/67/27 41/66/27 5/65/27
f 37/67/27 27/40/27 31/37/27 41/66/27
f 2/72/28 42/71/28 35/70/28 1/69/28
f 42/71/28 32/44/28 25/41/28 35/70/28
f 18/76/29 43/75/29 40/74/29 17/73/29
f 43/75/29 33/48/29 30/45/29 40/74/29
f 14/80/28 39/79/28 44/78/28 13/77/28
f 39/79/28 29/52/28 34/49/28 44/78/28
f 46/82/1 16/16/1 13/13/1 45/81/1
f 47/83/44 18/18/42 16/16/43 46/82/42
f 22/22/5 19/19/5 48/84/5 49/85/5
f 19/19/47 23/23/46 50/86/45 48/84/46
f 51/88/48 50/87/48 23/47/48 33/48/48
f 22/50/28 49/89/28 52/90/28 34/49/28
f 47/92/48 53/91/48 43/75/48 18/76/48
f 53/91/48 51/88/48 33/48/48 43/75/48
f 13/77/28 44/78/28 54/94/28 45/93/28
f 34/49/28 52/90/28 54/94/28 44/78/28
f 3/3/1 56/96/1 55/95/1 2/2/1
f 56/96/1 46/82/1 45/81/1 55/95/1
f 5/5/51 57/97/49 56/96/50 3/3/49
f 57/97/54 47/83/52 46/82/53 56/96/52
f 59/99/5 58/98/5 9/9/5 10/10/5
f 49/85/5 48/84/5 58/98/5 59/99/5
f 58/98/57 60/100/55 12/12/56 9/9/55
f 48/84/60 50/86/59 60/100/58 58/98/59
f 61/102/61 60/101/61 50/87/61 51/88/61
f 31/37/62 12/38/62 60/101/62 61/102/62
f 52/90/28 49/89/28 59/104/28 62/103/28
f 62/103/28 59/104/28 10/43/28 32/44/28
f 57/106/61 63/105/61 53/91/61 47/92/61
f 5/65/62 41/66/62 63/105/62 57/106/62
f 63/105/61 61/102/61 51/88/61 53/91/61
f 41/66/62 31/37/62 61/102/62 63/105/62
f 64/107/28 42/71/28 2/72/28 55/108/28
f 54/94/28 64/107/28 55/108/28 45/93/28
f 52/90/28 62/103/28 64/107/28 54/94/28
f 62/103/28 32/44/28 42/71/28 64/107/28

