# ProBuilder 6.0.4
# https://unity3d.com/unity/features/worldbuilding/probuilder
# 31/03/2025 13:24:38

mtllib ./LightL.mtl
o LightL

g Cube (1)
v 2.901484 1.34902 -4.85622
v 2.851219 1.340363 -4.937195
v 2.878082 1.39336 -4.828806
v 2.831587 1.394937 -4.930843
v 2.655735 1.309872 -4.848221
v 2.716434 1.315942 -4.712781
v 2.651899 1.320537 -4.84698
v 2.712597 1.326607 -4.711539
v 2.791857 1.311497 -4.74956
v 2.773364 1.353198 -4.752188
v 2.732342 1.305545 -4.882359
v 2.71722 1.347583 -4.877466
v 2.839203 1.307772 -4.78223
v 2.816351 1.371297 -4.774836
v 2.761164 1.365779 -4.897976
v 2.784016 1.302253 -4.905371
v 2.873665 1.322488 -4.802158
v 2.850813 1.386014 -4.794764
v 2.797051 1.380638 -4.914724
v 2.819903 1.317112 -4.922119

vt -0.02292044 -0.03587314
vt 0.07161244 -0.03587312
vt -0.04036755 0.01646104
vt 0.07161304 0.02247106
vt -0.07019043 0.01107115
vt 0.07835338 0.01107148
vt -0.07019059 0.02247295
vt 0.07835339 0.02247334
vt -0.120571 0.01106992
vt -0.04483639 -0.02247056
vt -0.04301658 0.02247187
vt -0.1205711 0.02247179
vt 0.02890545 -0.02247089
vt 0.105897 0.01106943
vt 0.1058973 0.02247122
vt 0.02890548 0.02247141
vt 0.1066741 0.07835317
vt 0.02973717 0.06720795
vt 0.02973753 -0.07019064
vt 0.1066738 -0.07019082
vt -0.1063601 -0.0701461
vt -0.02521441 -0.06996107
vt -0.02521451 0.07568085
vt -0.1063606 0.07839227
vt 0.008021647 -0.04544278
vt 0.00802127 0.02247158
vt -0.02289113 0.02247142
vt -0.02289139 -0.04544294
vt -0.02202171 -0.07019053
vt -0.02202175 0.064863
vt 0.02943828 0.06521495
vt 0.02943823 -0.06983364
vt 0.0500474 -0.0454428
vt 0.05004702 0.02247156
vt 0.1111643 -0.0358728
vt 0.09260019 0.01646143
vt -0.06518967 0.02247148
vt -0.06518994 -0.04544288
vt -0.1058964 0.02247122
vt -0.1058964 -0.03587295
vt -0.1036858 0.04177958
vt -0.1049671 -0.07019081
vt -0.06428975 -0.07019041
vt -0.0642897 0.06137645
vt 0.07125989 -0.06988768
vt 0.07125986 0.06167438
vt 0.1100745 -0.07001998
vt 0.1235435 0.02468439

vn 0.6351997 0.6199942 -0.4605741
vn 0.7445243 0.4859005 -0.4221032
vn 0.8538491 0.3518067 -0.3836324
vn -0.8484066 -0.3513106 0.3959636
vn 0.4811676 0.1693957 0.855279
vn 0.4363773 0.2480209 0.8649049
vn 0.5259578 0.09077045 0.8456531
vn -0.4086256 -0.04086484 -0.9117869
vn -0.3364818 0.9353751 0.1088737
vn -0.03036422 -0.9978355 0.05832968
vn 0.474461 0.1674452 0.8559435
vn 0.570347 0.1104202 0.8139482
vn 0.3785749 0.2244702 0.8979388
vn -0.03637842 -0.9974742 0.06100779
vn 0.4769437 0.06957691 0.8761756
vn 0.7983648 0.1653229 0.5720199
vn 0.8518335 0.1370078 0.5055776
vn 0.7448961 0.193638 0.6384622
vn -0.2590458 0.9570181 0.1025952
vn -0.3140883 0.9362239 0.1575858
vn -0.2040033 0.9778121 0.04760447
vn 0.3364782 -0.9353762 -0.1088753
vn 0.4932749 -0.845652 -0.2012051
vn 0.5079909 -0.8310515 -0.2264923
vn 0.4785589 -0.8602525 -0.1759178

usemtl ProBuilderDefault
f 1/1/1 2/2/2 4/4/3 3/3/2
f 5/5/4 6/6/4 8/8/4 7/7/4
f 9/10/6 10/11/5 8/12/7 6/9/5
f 7/15/8 12/16/8 11/13/8 5/14/8
f 7/20/9 8/17/9 10/18/9 12/19/9
f 9/23/10 6/24/10 5/21/10 11/22/10
f 10/11/13 9/10/11 13/25/12 14/26/11
f 15/27/8 16/28/8 11/13/8 12/16/8
f 14/30/9 15/29/9 12/19/9 10/18/9
f 13/31/14 9/23/14 11/22/14 16/32/14
f 14/26/15 13/25/15 17/33/15 18/34/15
f 1/35/17 3/36/16 18/34/18 17/33/16
f 19/37/8 20/38/8 16/28/8 15/27/8
f 19/37/8 4/39/8 2/40/8 20/38/8
f 3/41/19 4/42/20 19/43/19 18/44/21
f 18/44/9 19/43/9 15/29/9 14/30/9
f 17/46/22 13/31/22 16/32/22 20/45/22
f 17/46/25 20/45/23 2/47/24 1/48/23

