# ProBuilder 6.0.4
# https://unity3d.com/unity/features/worldbuilding/probuilder
# 31/03/2025 11:46:46

mtllib ./LightR.mtl
o LightR

g Cube
v 2.40032 1.351229 -4.859732
v 2.450745 1.350314 -4.941064
v 2.422263 1.39416 -4.829062
v 2.468552 1.404888 -4.930639
v 2.647249 1.319821 -4.854366
v 2.58655 1.313752 -4.718925
v 2.650728 1.330486 -4.852328
v 2.59003 1.324417 -4.716888
v 2.511271 1.309544 -4.756028
v 2.528358 1.351919 -4.755518
v 2.570787 1.315495 -4.888827
v 2.584503 1.357533 -4.880796
v 2.464036 1.306685 -4.788944
v 2.484763 1.37021 -4.776808
v 2.53995 1.375729 -4.899948
v 2.519222 1.312203 -4.912084
v 2.429077 1.321687 -4.807763
v 2.449804 1.385212 -4.795627
v 2.503566 1.390588 -4.915587
v 2.482839 1.327063 -4.927724

vt 0.04129842 -0.07032003
vt -0.05440138 -0.07032002
vt 0.05621317 -0.0151584
vt -0.05440198 -0.01496645
vt 0.07019036 0.01107205
vt -0.07835344 0.01107238
vt 0.07019053 0.02247385
vt -0.07835346 0.02247424
vt 0.1200201 0.007446189
vt 0.0441442 -0.02690736
vt 0.04240705 0.01847076
vt 0.1200202 0.01882298
vt -0.02890482 -0.02247112
vt -0.1058963 0.0110692
vt -0.1058966 0.02247099
vt -0.02890485 0.02247118
vt -0.1058972 0.07804494
vt -0.02890468 0.06690072
vt -0.02890505 -0.07048552
vt -0.1058968 -0.0704857
vt 0.1062831 -0.07019066
vt 0.02484928 -0.0701906
vt 0.02484939 0.07545665
vt 0.1062835 0.07835314
vt -0.008722247 -0.04986545
vt -0.008721875 0.01789952
vt 0.02289175 0.02247119
vt 0.02289202 -0.04544317
vt 0.02289155 -0.07048541
vt 0.02289159 0.06455599
vt -0.0300027 0.06486248
vt -0.03000265 -0.07019104
vt -0.05080662 -0.05022987
vt -0.05080625 0.01753511
vt -0.1116746 -0.03905185
vt -0.09324975 0.01226105
vt 0.06519029 0.02247125
vt 0.06519056 -0.04544311
vt 0.105897 0.02247099
vt 0.105897 -0.03587318
vt 0.1043861 0.04155519
vt 0.1058968 -0.0704857
vt 0.0651901 -0.0704853
vt 0.06519005 0.06106975
vt -0.07173385 -0.07019094
vt -0.07173383 0.06137593
vt -0.1103322 -0.07019022
vt -0.1237721 0.02453505

vn -0.656119 0.6310357 -0.413886
vn -0.7608575 0.4908727 -0.3856509
vn -0.8655961 0.3507098 -0.3574158
vn 0.8601554 -0.3513159 0.3697429
vn -0.4854911 0.08903126 0.8649226
vn -0.4433392 0.1681722 0.8804365
vn -0.527643 0.009890358 0.8494087
vn 0.4086278 0.04085906 -0.9117861
vn 0.3051977 0.9353734 0.1786924
vn 0.06373689 -0.9978361 -0.01615043
vn -0.4787223 0.08726172 0.8654483
vn -0.572703 0.03035498 0.8192008
vn -0.3847416 0.1441685 0.9116959
vn 0.06973899 -0.9974747 -0.01344533
vn -0.4779108 -0.01187031 0.8783282
vn -0.8027275 0.09548879 0.5817519
vn -0.8553035 0.07043404 0.5133176
vn -0.7501516 0.1205436 0.6501861
vn 0.2270746 0.9548264 0.1739474
vn 0.2828491 0.9318418 0.2273044
vn 0.1713002 0.977811 0.1205905
vn -0.3051941 -0.9353743 -0.1786941
vn -0.465014 -0.8443048 -0.2642768
vn -0.4802407 -0.8283601 -0.2884241
vn -0.4497873 -0.8602495 -0.2401295

usemtl ProBuilderDefault
f 3/3/2 4/4/3 2/2/2 1/1/1
f 7/7/4 8/8/4 6/6/4 5/5/4
f 8/12/7 10/11/5 9/10/6 6/9/5
f 11/13/8 12/16/8 7/15/8 5/14/8
f 10/18/9 8/17/9 7/20/9 12/19/9
f 5/21/10 6/24/10 9/23/10 11/22/10
f 14/26/11 13/25/12 9/10/11 10/11/13
f 12/16/8 11/13/8 16/28/8 15/27/8
f 14/30/9 10/18/9 12/19/9 15/29/9
f 13/31/14 16/32/14 11/22/14 9/23/14
f 18/34/15 17/33/15 13/25/15 14/26/15
f 18/34/18 3/36/16 1/35/17 17/33/16
f 15/27/8 16/28/8 20/38/8 19/37/8
f 2/40/8 4/39/8 19/37/8 20/38/8
f 18/44/21 19/43/19 4/42/20 3/41/19
f 18/44/9 14/30/9 15/29/9 19/43/9
f 17/46/22 20/45/22 16/32/22 13/31/22
f 1/48/23 2/47/24 20/45/23 17/46/25

