<svg xmlns="http://www.w3.org/2000/svg" width="512" height="512" viewBox="0 0 512 512">
  <defs>
    <radialGradient id="button" cx="38%" cy="30%" r="75%">
      <stop offset="0" stop-color="#3b3342"/>
      <stop offset="0.56" stop-color="#251d2c"/>
      <stop offset="1" stop-color="#0d0910"/>
    </radialGradient>
    <linearGradient id="rim" x1="0" y1="0" x2="1" y2="1">
      <stop offset="0" stop-color="#f5b1ff"/>
      <stop offset="0.48" stop-color="#c65cff"/>
      <stop offset="1" stop-color="#7132ff"/>
    </linearGradient>
  </defs>
  <circle cx="256" cy="256" r="226" fill="#0d0e10" stroke="#050608" stroke-width="10"/>
  <circle cx="256" cy="256" r="216" fill="url(#button)" stroke="url(#rim)" stroke-width="13"/>
  <circle cx="256" cy="256" r="195" fill="none" stroke="#f7d5ff" stroke-width="4"/>
  <g fill="#f8fafb" stroke="#0d0f12" stroke-width="7">
    <rect x="238" y="119" width="36" height="82" rx="12"/>
    <rect x="238" y="311" width="36" height="82" rx="12"/>
    <rect x="238" y="119" width="36" height="82" rx="12" transform="rotate(45 256 256)"/>
    <rect x="238" y="311" width="36" height="82" rx="12" transform="rotate(45 256 256)"/>
    <rect x="238" y="119" width="36" height="82" rx="12" transform="rotate(90 256 256)"/>
    <rect x="238" y="311" width="36" height="82" rx="12" transform="rotate(90 256 256)"/>
    <rect x="238" y="119" width="36" height="82" rx="12" transform="rotate(135 256 256)"/>
    <rect x="238" y="311" width="36" height="82" rx="12" transform="rotate(135 256 256)"/>
    <circle cx="256" cy="256" r="103"/>
  </g>
  <circle cx="256" cy="256" r="45" fill="#17131b" stroke="#c65cff" stroke-width="10"/>
</svg>
